<svg width="94" height="100" viewBox="0 0 94 100" fill="none" xmlns="http://www.w3.org/2000/svg">
<path d="M93.0015 55.4454C92.4391 55.827 92.232 56.4824 91.8093 56.9755C89.8528 59.2686 87.3505 60.7764 84.641 61.9724C79.4526 64.2649 73.9616 65.3179 68.3571 65.8265C61.3033 66.4626 54.295 66.2143 47.3809 64.5512C44.567 63.8711 41.837 62.9461 39.2616 61.6252C38.7289 61.3528 38.4095 61.5103 38 61.7946C31.1449 66.516 24.7427 71.795 18.8091 77.631C14.7776 81.6014 10.9342 85.7442 7.63494 90.3645C6.89943 91.3944 6.20839 92.4605 5.45935 93.5685C5.94626 93.5124 6.15533 93.1805 6.43618 92.9742C13.0473 88.2 20.1332 84.3468 27.8834 81.7641C29.5395 81.2113 31.281 80.9517 32.9024 80.2598C33.3546 80.0646 33.8044 80.1369 34.0108 80.6634C34.2344 81.2518 33.8619 81.5227 33.3853 81.7372C27.4828 84.4401 21.626 87.2258 15.9791 90.4323C11.307 93.0817 6.67426 95.8111 2.66881 99.4635C2.16125 99.9245 1.65896 99.8659 1.06784 99.6199C0.438922 99.3562 0.741082 98.8911 0.721411 98.4904C0.515355 93.8796 2.13107 89.592 3.17227 85.2198C4.54571 79.4982 6.78238 74.0812 9.34611 68.8017C9.92808 67.6078 10.8001 66.5651 11.0701 65.2175C11.117 64.9861 11.2895 64.7982 11.5507 64.9127C11.7614 65.0037 11.7171 65.2132 11.682 65.4194C10.844 70.5547 9.16654 75.466 7.60169 80.3992C6.65839 83.3817 5.85911 86.4009 5.19168 89.4664C6.02487 88.2443 6.83294 87.0103 7.72657 85.8395C12.6036 79.4397 18.326 73.858 24.4122 68.6308C27.9028 65.6355 31.538 62.823 35.3182 60.2091C35.8286 59.8568 35.9783 59.7503 35.3538 59.2968C31.5662 56.5639 28.7027 53.1198 27.4764 48.5074C26.3977 44.4324 26.9768 40.4733 28.4697 36.6119C30.8257 30.5135 34.7865 25.4968 39.3216 20.9099C50.9079 9.19842 64.8403 2.21649 81.2259 0.260228C84.2927 -0.10818 87.3688 -0.119091 90.4095 0.552095C90.5191 0.580372 90.6283 0.593183 90.7316 0.618511C91.1758 0.719028 91.4356 1.01715 91.3628 1.4514C91.287 1.89194 90.8841 1.94906 90.5032 1.89357C89.3168 1.72199 88.1302 1.66546 86.9398 1.69929C76.7822 1.99558 67.3221 4.85249 58.425 9.63898C49.2518 14.5726 41.414 21.1141 35.208 29.5327C32.7015 32.935 30.643 36.5776 29.7462 40.7565C28.3334 47.3655 30.7655 52.5346 35.8578 56.646C36.5439 57.1976 37.2537 57.9445 38.0507 58.095C38.8759 58.251 39.5676 57.3311 40.3053 56.8704C48.1083 51.9939 56.2707 47.9076 65.1884 45.4877C71.1933 43.8615 77.2869 42.8986 83.5265 43.7392C86.0456 44.0817 88.4702 44.7407 90.6165 46.1908C93.4403 48.0963 94.4445 50.9694 93.3933 54.2315C93.3587 54.3382 93.3271 54.4384 93.4257 54.523L93.0011 55.4299L93.0015 55.4454ZM41.0189 59.8069C42.9849 60.6583 44.8314 61.3384 46.7328 61.8524C53.0571 63.5617 59.5111 63.9117 66.011 63.5075C71.7657 63.1538 77.4153 62.221 82.7896 60.0232C85.4275 58.9473 87.913 57.6234 89.787 55.3914C92.2315 52.4822 91.5957 49.5437 88.1987 47.8459C87.0485 47.269 85.838 46.8865 84.5811 46.6359C79.9634 45.7254 75.3655 46.068 70.8001 46.9479C62.3194 48.582 54.5095 51.9812 47.0123 56.1716C45.0161 57.287 43.056 58.4728 41.0126 59.804L41.0189 59.8069Z" fill="white"/>
</svg>
