<svg width="28" height="57" viewBox="0 0 28 57" fill="none" xmlns="http://www.w3.org/2000/svg">
<path d="M27.488 17.2808C27.4135 17.5554 27.5266 17.8199 27.5269 18.0918C27.5313 19.3536 27.1481 20.515 26.6141 21.6338C25.5923 23.7771 24.1362 25.6094 22.4955 27.2998C20.4295 29.4261 18.1367 31.2591 15.4878 32.6173C14.4089 33.169 13.2898 33.6201 12.1118 33.9033C11.8683 33.9621 11.8099 34.0993 11.7574 34.3013C10.869 37.6704 10.2764 41.093 9.98465 44.5646C9.78783 46.925 9.69775 49.2888 9.91069 51.6558C9.95813 52.1834 10.0296 52.7104 10.094 53.2665C10.2333 53.1159 10.2091 52.9535 10.242 52.8113C11.0386 49.492 12.2371 46.3356 13.9932 43.4013C14.3682 42.774 14.8503 42.2165 15.1763 41.5545C15.2667 41.3692 15.4292 41.2694 15.6384 41.3803C15.8699 41.5061 15.8255 41.6937 15.7327 41.8918C14.596 44.3602 13.4965 46.8424 12.5784 49.401C11.8178 51.5167 11.0915 53.6471 10.8162 55.8994C10.7808 56.1843 10.6054 56.3027 10.3506 56.3858C10.079 56.4737 10.048 56.2436 9.93244 56.1217C8.6092 54.7141 7.9525 52.912 7.0903 51.2398C5.9655 49.0486 5.19782 46.7185 4.57155 44.3429C4.43062 43.8051 4.423 43.2361 4.14111 42.7346C4.09288 42.6483 4.09637 42.5416 4.21054 42.5068C4.30227 42.4782 4.34534 42.5567 4.39044 42.6318C5.52533 44.4908 6.33257 46.5077 7.18155 48.5009C7.69568 49.7052 8.26557 50.8818 8.88996 52.0372C8.82108 51.4218 8.74101 50.8096 8.70532 50.1941C8.50787 46.8317 8.802 43.4985 9.30833 40.1785C9.59941 38.2753 9.98631 36.3907 10.4734 34.5295C10.5394 34.2784 10.5578 34.2038 10.2358 34.2301C8.28776 34.3957 6.43905 34.0834 4.79141 32.9535C3.33725 31.954 2.44104 30.5391 1.86165 28.9058C0.946 26.3269 0.834945 23.6536 1.02347 20.9601C1.50711 14.081 4.02587 8.06341 8.69453 2.97224C9.56772 2.01863 10.5414 1.17601 11.6899 0.559572C11.7324 0.538651 11.7706 0.512946 11.8103 0.492807C11.9787 0.403516 12.1425 0.42732 12.2379 0.585044C12.334 0.745572 12.2217 0.873624 12.0856 0.959921C11.6621 1.22911 11.27 1.53486 10.9012 1.87036C7.75708 4.73547 5.53293 8.22329 4.01394 12.1701C2.4474 16.239 1.74352 20.4541 2.06977 24.82C2.20215 26.584 2.54232 28.302 3.39756 29.8735C4.752 32.3572 6.93434 33.3349 9.67271 33.251C10.041 33.239 10.4701 33.2825 10.7642 33.1128C11.0688 32.9372 11.0374 32.4565 11.146 32.1089C12.2931 28.432 13.7698 24.9079 15.941 21.7068C17.4039 19.5523 19.0759 17.5843 21.2862 16.1489C22.1795 15.5705 23.129 15.1183 24.2061 14.9931C25.6224 14.8278 26.7251 15.466 27.2812 16.7885C27.2993 16.8318 27.3167 16.8722 27.371 16.8722L27.4836 17.2759L27.488 17.2808ZM12.1736 32.8466C13.0301 32.5806 13.8019 32.2928 14.5458 31.9373C17.02 30.7547 19.1646 29.1051 21.1181 27.2036C22.8486 25.5214 24.3879 23.684 25.4946 21.5201C26.0386 20.4588 26.4666 19.3605 26.4527 18.1406C26.4351 16.55 25.4316 15.7905 23.89 16.1782C23.3674 16.3088 22.8787 16.5176 22.4113 16.7809C20.6968 17.7516 19.3305 19.1147 18.121 20.6395C15.8742 23.4719 14.3219 26.6817 13.0848 30.0574C12.7553 30.9561 12.4565 31.8673 12.1708 32.8474L12.1736 32.8466Z" fill="#6CA3A4"/>
</svg>
