<svg width="34" height="31" viewBox="0 0 34 31" fill="none" xmlns="http://www.w3.org/2000/svg">
<path d="M11.6084 24.998C12.2287 24.998 12.824 25.2441 13.2627 25.6826C13.7014 26.1213 13.9481 26.7166 13.9482 27.3369C13.9482 27.7996 13.8108 28.252 13.5537 28.6367C13.2966 29.0215 12.9314 29.3219 12.5039 29.499C12.0765 29.676 11.6061 29.7221 11.1523 29.6318C10.6985 29.5416 10.2813 29.3184 9.9541 28.9912C9.62719 28.6641 9.40472 28.2475 9.31445 27.7939C9.2242 27.3402 9.27031 26.8698 9.44727 26.4424C9.62433 26.0149 9.9239 25.6487 10.3086 25.3916C10.6932 25.1346 11.1458 24.9981 11.6084 24.998ZM26.0488 24.998C26.6692 24.998 27.2644 25.2441 27.7031 25.6826C28.1418 26.1213 28.3886 26.7166 28.3887 27.3369C28.3887 27.7996 28.2511 28.252 27.9941 28.6367C27.7371 29.0215 27.3718 29.3219 26.9443 29.499C26.5169 29.676 26.0465 29.7221 25.5928 29.6318C25.1389 29.5416 24.7217 29.3184 24.3945 28.9912C24.0676 28.6641 23.8452 28.2475 23.7549 27.7939C23.6646 27.3402 23.7107 26.8698 23.8877 26.4424C24.0648 26.0149 24.3643 25.6487 24.749 25.3916C25.1337 25.1346 25.5862 24.9981 26.0488 24.998ZM2.16699 0.560547H3.94629L4.13574 0.568359C4.57644 0.605443 4.99938 0.766292 5.35449 1.03418C5.75976 1.33998 6.05499 1.76924 6.19629 2.25684V2.25781L7.20898 5.79688L7.2998 6.11426H31.6025C31.7947 6.11424 31.9846 6.15957 32.1562 6.24609C32.3279 6.33272 32.4775 6.45858 32.5918 6.61328C32.706 6.76792 32.7822 6.94724 32.8145 7.13672C32.8468 7.32629 32.8339 7.52127 32.7773 7.70508L28.9883 20.0205V20.0225C28.7737 20.7286 28.3368 21.3466 27.7432 21.7852C27.1493 22.2237 26.4296 22.4597 25.6914 22.457H12.0166C11.267 22.4545 10.5379 22.2092 9.93945 21.7578C9.34091 21.3064 8.9047 20.6723 8.69629 19.9521L3.9502 3.33496L3.85938 3.01758H2.16699C1.84115 3.01753 1.52826 2.88861 1.29785 2.6582C1.06751 2.42777 0.938477 2.11489 0.938477 1.78906C0.93852 1.46322 1.06744 1.15033 1.29785 0.919922C1.52826 0.689514 1.84115 0.56059 2.16699 0.560547ZM8.16016 9.12988L11.0605 19.2793C11.1199 19.4868 11.2455 19.6699 11.418 19.7998C11.5902 19.9294 11.8001 19.9991 12.0156 19.999H25.6895V19.998C25.9016 19.9983 26.1084 19.9315 26.2793 19.8057C26.4503 19.6797 26.576 19.5018 26.6387 19.2988H26.6396L29.7646 9.1377L29.9385 8.57227H8.00098L8.16016 9.12988Z" fill="white" stroke="#6CA3A4" stroke-width="0.874744"/>
</svg>
