<svg width="17" height="17" viewBox="0 0 17 17" fill="none" xmlns="http://www.w3.org/2000/svg">
<path d="M12.8701 7.31055C12.8701 6.11707 12.396 4.97248 11.5521 4.12857C10.7082 3.28465 9.56359 2.81055 8.37012 2.81055C7.17664 2.81055 6.03205 3.28465 5.18814 4.12857C4.34422 4.97248 3.87012 6.11707 3.87012 7.31055C3.87012 9.15655 5.34712 11.5625 8.37012 14.4445C11.3931 11.5625 12.8701 9.15655 12.8701 7.31055ZM8.37012 15.8105C4.70312 12.4775 2.87012 9.64355 2.87012 7.31055C2.87012 5.85186 3.44958 4.45291 4.48103 3.42146C5.51248 2.39001 6.91143 1.81055 8.37012 1.81055C9.82881 1.81055 11.2278 2.39001 12.2592 3.42146C13.2907 4.45291 13.8701 5.85186 13.8701 7.31055C13.8701 9.64355 12.0371 12.4775 8.37012 15.8105Z" fill="black"/>
<path d="M8.37012 8.81055C8.76794 8.81055 9.14947 8.65251 9.43078 8.37121C9.71208 8.0899 9.87012 7.70837 9.87012 7.31055C9.87012 6.91272 9.71208 6.53119 9.43078 6.24989C9.14947 5.96858 8.76794 5.81055 8.37012 5.81055C7.97229 5.81055 7.59076 5.96858 7.30946 6.24989C7.02815 6.53119 6.87012 6.91272 6.87012 7.31055C6.87012 7.70837 7.02815 8.0899 7.30946 8.37121C7.59076 8.65251 7.97229 8.81055 8.37012 8.81055ZM8.37012 9.81055C7.70708 9.81055 7.07119 9.54715 6.60235 9.07831C6.13351 8.60947 5.87012 7.97359 5.87012 7.31055C5.87012 6.64751 6.13351 6.01162 6.60235 5.54278C7.07119 5.07394 7.70708 4.81055 8.37012 4.81055C9.03316 4.81055 9.66904 5.07394 10.1379 5.54278C10.6067 6.01162 10.8701 6.64751 10.8701 7.31055C10.8701 7.97359 10.6067 8.60947 10.1379 9.07831C9.66904 9.54715 9.03316 9.81055 8.37012 9.81055Z" fill="black"/>
</svg>
