<svg width="29" height="29" viewBox="0 0 29 29" fill="none" xmlns="http://www.w3.org/2000/svg">
<g clip-path="url(#clip0_7_7628)">
<path d="M23.2167 4.4176H5.33058C3.96779 4.41913 2.66126 4.96118 1.69763 5.92482C0.733993 6.88845 0.191954 8.19499 0.19043 9.55778V19.3699C0.191954 20.7327 0.733993 22.0392 1.69763 23.0028C2.66126 23.9665 3.96779 24.5085 5.33058 24.5101H23.2167C24.5794 24.5085 25.886 23.9665 26.8496 23.0028C27.8132 22.0392 28.3553 20.7327 28.3568 19.3699V9.55778C28.3553 8.195 27.8132 6.88847 26.8496 5.92483C25.886 4.96119 24.5794 4.41914 23.2167 4.4176ZM18.7277 14.6467L12.2222 18.4026C12.1481 18.4576 12.0577 18.4861 11.9655 18.4836C11.9156 18.4052 11.8944 18.312 11.9055 18.2198V10.7079C11.895 10.6162 11.9155 10.5237 11.9638 10.4451C11.9711 10.4429 11.9786 10.442 11.9862 10.4424C12.0705 10.4499 12.1516 10.4783 12.2222 10.5251L18.7276 14.2809C18.8837 14.3711 18.9239 14.4489 18.9261 14.4629C18.9239 14.4788 18.8838 14.5566 18.7277 14.6467Z" fill="black"/>
</g>
<defs>
<clipPath id="clip0_7_7628">
<rect width="28.5716" height="28.5716" fill="white" transform="translate(-0.00488281 0.178345)"/>
</clipPath>
</defs>
</svg>
