<svg width="30" height="29" viewBox="0 0 30 29" fill="none" xmlns="http://www.w3.org/2000/svg">
<g clip-path="url(#clip0_7_7623)">
<path d="M21.7144 0.178345H8.61101C4.34638 0.178345 0.876953 3.64777 0.876953 7.9124V21.016C0.876953 25.2805 4.34638 28.7499 8.61101 28.7499H21.7147C25.9791 28.7499 29.4485 25.2805 29.4485 21.016V7.9124C29.4485 3.64777 25.9791 0.178345 21.7144 0.178345ZM27.7735 21.016C27.7735 24.3569 25.0555 27.0749 21.7144 27.0749H8.61101C5.26998 27.0749 2.55194 24.3569 2.55194 21.016V7.9124C2.55194 4.57137 5.26998 1.85333 8.61101 1.85333H21.7147C25.0555 1.85333 27.7735 4.57137 27.7735 7.9124V21.016Z" fill="black"/>
<path d="M15.1609 6.6521C10.8532 6.6521 7.34863 10.1566 7.34863 14.4644C7.34863 18.7722 10.8532 22.2767 15.1609 22.2767C19.4687 22.2767 22.9733 18.7722 22.9733 14.4644C22.9733 10.1566 19.4687 6.6521 15.1609 6.6521ZM15.1609 20.6017C11.777 20.6017 9.02362 17.8486 9.02362 14.4644C9.02362 11.0804 11.777 8.32709 15.1609 8.32709C18.5451 8.32709 21.2983 11.0804 21.2983 14.4644C21.2983 17.8486 18.5451 20.6017 15.1609 20.6017Z" fill="black"/>
<path d="M23.161 3.87561C21.888 3.87561 20.8525 4.91125 20.8525 6.18406C20.8525 7.45708 21.888 8.49272 23.161 8.49272C24.434 8.49272 25.4696 7.45708 25.4696 6.18406C25.4696 4.91103 24.434 3.87561 23.161 3.87561ZM23.161 6.81752C22.8118 6.81752 22.5275 6.53327 22.5275 6.18406C22.5275 5.83463 22.8118 5.5506 23.161 5.5506C23.5104 5.5506 23.7947 5.83463 23.7947 6.18406C23.7947 6.53327 23.5104 6.81752 23.161 6.81752Z" fill="black"/>
</g>
<defs>
<clipPath id="clip0_7_7623">
<rect width="28.5716" height="28.5716" fill="white" transform="translate(0.876953 0.178345)"/>
</clipPath>
</defs>
</svg>
