<svg width="79" height="79" viewBox="0 0 79 79" fill="none" xmlns="http://www.w3.org/2000/svg">
<ellipse cx="39.3472" cy="39.1868" rx="39.1548" ry="39.0408" fill="#F4C24D"/>
<path d="M28.014 41.0734V53.4067H38.8057V41.0734H28.014ZM40.3473 41.0734V53.4067H51.139V41.0734H40.3473ZM52.6807 41.0734V54.9484H26.4723V41.0734H24.9307V31.8234H29.6173L29.5557 31.0526C29.5557 29.6215 30.1242 28.2491 31.1361 27.2371C32.148 26.2252 33.5204 25.6567 34.9515 25.6567C36.9094 25.6567 38.6361 26.7051 39.5765 28.2776C40.5169 26.7051 42.2436 25.6567 44.2015 25.6567C45.6326 25.6567 47.005 26.2252 48.0169 27.2371C49.0288 28.2491 49.5973 29.6215 49.5973 31.0526L49.5357 31.8234H54.2223V41.0734H52.6807ZM26.4723 33.3651V39.5317H38.8057V33.3651H26.4723ZM52.6807 39.5317V33.3651H40.3473V39.5317H52.6807ZM47.9786 31.8234L48.0557 31.0526C48.0557 30.0304 47.6496 29.0501 46.9268 28.3273C46.204 27.6045 45.2237 27.1984 44.2015 27.1984C43.1793 27.1984 42.199 27.6045 41.4762 28.3273C40.7534 29.0501 40.3473 30.0304 40.3473 31.0526V31.8234H47.9786ZM38.8057 31.8234V31.0526C38.8057 30.0304 38.3996 29.0501 37.6768 28.3273C36.954 27.6045 35.9737 27.1984 34.9515 27.1984C33.9293 27.1984 32.949 27.6045 32.2262 28.3273C31.5034 29.0501 31.0973 30.0304 31.0973 31.0526L31.1744 31.8234H38.8057Z" fill="white"/>
</svg>
