<svg width="65" height="64" viewBox="0 0 65 64" fill="none" xmlns="http://www.w3.org/2000/svg">
<circle cx="32.4818" cy="31.2488" r="25.1629" fill="#F4C24D"/>
<path d="M40.3629 23.2392L42.0006 36.4529C42.0313 36.7011 41.9623 36.9512 41.8086 37.1484C41.6549 37.3456 41.4291 37.4737 41.181 37.5044C40.9329 37.5352 40.6827 37.4661 40.4855 37.3124C40.2883 37.1587 40.1603 36.933 40.1295 36.6848L38.7727 25.7265L26.2786 41.7557C26.1251 41.9527 25.8997 42.0806 25.6519 42.1113C25.4041 42.142 25.1542 42.073 24.9573 41.9195C24.7603 41.766 24.6324 41.5405 24.6017 41.2927C24.571 41.0449 24.64 40.7951 24.7935 40.5981L37.2875 24.5689L26.3295 25.9284C26.0814 25.9591 25.8312 25.8901 25.634 25.7364C25.4368 25.5827 25.3088 25.3569 25.278 25.1088C25.2473 24.8607 25.3163 24.6105 25.47 24.4133C25.6237 24.2161 25.8495 24.0881 26.0976 24.0573L39.3114 22.4196C39.4342 22.4042 39.559 22.4132 39.6784 22.4461C39.7977 22.479 39.9095 22.5351 40.0072 22.6112C40.1048 22.6873 40.1865 22.782 40.2476 22.8898C40.3086 22.9975 40.3478 23.1162 40.3629 23.2392Z" fill="black"/>
</svg>
