<svg width="29" height="29" viewBox="0 0 29 29" fill="none" xmlns="http://www.w3.org/2000/svg">
<path d="M25.8272 25.8933V17.5218C25.8272 13.4075 24.9415 10.2646 20.1414 10.2646C17.8271 10.2646 16.2843 11.5218 15.6557 12.7218H15.5985V10.6361H11.0557V25.8933H15.7986V18.3218C15.7986 16.3218 16.17 14.4075 18.6271 14.4075C21.0557 14.4075 21.0843 16.6647 21.0843 18.4361V25.8647H25.8272V25.8933Z" fill="black"/>
<path d="M3.34082 10.636H8.0837V25.8932H3.34082V10.636Z" fill="black"/>
<path d="M5.7126 3.03589C4.19831 3.03589 2.96973 4.26447 2.96973 5.77876C2.96973 7.29306 4.19831 8.55021 5.7126 8.55021C7.22689 8.55021 8.45547 7.29306 8.45547 5.77876C8.45547 4.26447 7.22689 3.03589 5.7126 3.03589Z" fill="black"/>
</svg>
