<svg width="35" height="25" viewBox="0 0 35 25" fill="none" xmlns="http://www.w3.org/2000/svg">
<path d="M26.9465 0.468892C29.0401 0.468892 30.7623 1.11048 32.113 2.39366C33.3962 3.74437 34.0378 5.46653 34.0378 7.56014C34.0378 10.194 32.9572 13.0643 30.7961 16.1709C28.5674 19.3451 25.6296 22.1478 21.9827 24.5791L20.4631 23.0596C21.8814 21.5738 22.9957 20.1893 23.8061 18.9061C24.6165 17.6229 25.0218 16.5761 25.0218 15.7657C25.0218 15.293 24.8867 14.854 24.6165 14.4488C24.2789 14.0436 23.8061 13.6046 23.1983 13.1318C22.2528 12.3889 21.5099 11.6123 20.9696 10.8018C20.4293 9.99142 20.1592 8.91085 20.1592 7.56014C20.1592 5.46653 20.8008 3.74437 22.084 2.39366C23.3671 1.11048 24.988 0.468892 26.9465 0.468892ZM7.29366 0.468892C9.38726 0.468892 11.1094 1.11048 12.4601 2.39366C13.7433 3.74437 14.3849 5.46653 14.3849 7.56014C14.3849 10.194 13.3043 13.0643 11.1432 16.1709C8.91451 19.3451 5.97671 22.1478 2.32979 24.5791L0.810234 23.0596C2.22848 21.5738 3.34282 20.1893 4.15325 18.9061C4.96368 17.6229 5.36889 16.5761 5.36889 15.7657C5.36889 15.293 5.23382 14.854 4.96368 14.4488C4.626 14.0436 4.15325 13.6046 3.54543 13.1318C2.59993 12.3889 1.85704 11.6123 1.31675 10.8018C0.776468 9.99142 0.506325 8.91085 0.506325 7.56014C0.506325 5.46653 1.14791 3.74437 2.43109 2.39366C3.71427 1.11048 5.33512 0.468892 7.29366 0.468892Z" fill="#6CA3A4"/>
</svg>
