<svg width="35" height="25" viewBox="0 0 35 25" fill="none" xmlns="http://www.w3.org/2000/svg">
<path d="M7.93336 24.829C5.83975 24.829 4.1176 24.1874 2.76688 22.9042C1.48371 21.5535 0.842118 19.8313 0.842118 17.7377C0.842118 15.1038 1.92269 12.2336 4.08383 9.12692C6.3125 5.95275 9.2503 3.15002 12.8972 0.718738L14.4168 2.23829C12.9985 3.72407 11.8842 5.10855 11.0738 6.39173C10.2633 7.67491 9.85812 8.72171 9.85812 9.53214C9.85812 10.0049 9.9932 10.4439 10.2633 10.8491C10.601 11.2543 11.0738 11.6933 11.6816 12.166C12.6271 12.9089 13.37 13.6856 13.9103 14.496C14.4505 15.3064 14.7207 16.387 14.7207 17.7377C14.7207 19.8313 14.0791 21.5535 12.7959 22.9042C11.5127 24.1874 9.89189 24.829 7.93336 24.829ZM27.5862 24.829C25.4926 24.829 23.7705 24.1874 22.4198 22.9042C21.1366 21.5535 20.495 19.8313 20.495 17.7377C20.495 15.1038 21.5756 12.2336 23.7367 9.12692C25.9654 5.95275 28.9032 3.15002 32.5501 0.718738L34.0696 2.23829C32.6514 3.72407 31.5371 5.10855 30.7266 6.39173C29.9162 7.67491 29.511 8.72171 29.511 9.53214C29.511 10.0049 29.6461 10.4439 29.9162 10.8491C30.2539 11.2543 30.7266 11.6933 31.3345 12.166C32.28 12.9089 33.0228 13.6856 33.5631 14.496C34.1034 15.3064 34.3736 16.387 34.3736 17.7377C34.3736 19.8313 33.732 21.5535 32.4488 22.9042C31.1656 24.1874 29.5448 24.829 27.5862 24.829Z" fill="#6CA3A4"/>
</svg>
