<svg width="135" height="64" viewBox="0 0 135 64" fill="none" xmlns="http://www.w3.org/2000/svg">
<path d="M39.876 0.243245C40.5373 0.400351 41.1604 0.110358 41.8096 0.0891226C44.8221 -0.0168755 47.6241 0.810099 50.336 2.00053C55.5309 4.27829 60.016 7.61645 64.1763 11.4061C69.4095 16.1783 73.9597 21.5143 77.4031 27.7363C78.802 30.2709 79.9637 32.9088 80.729 35.7002C80.8879 36.277 81.2199 36.4062 81.7061 36.5162C89.8178 38.3827 98.0348 39.5386 106.346 39.9727C111.997 40.2642 117.648 40.3005 123.284 39.613C124.54 39.4598 125.793 39.2494 127.116 39.0534C126.746 38.7322 126.36 38.8023 126.018 38.7345C118.032 37.0835 110.404 34.4605 103.265 30.4894C101.739 29.6415 100.372 28.5325 98.7662 27.8041C98.3169 27.6025 98.0664 27.222 98.3153 26.7141C98.5981 26.1518 99.0495 26.2436 99.5296 26.4502C105.509 28.9775 111.519 31.4151 117.698 33.4138C122.807 35.0699 127.949 36.6429 133.348 37.1298C134.031 37.1928 134.327 37.6028 134.544 38.2049C134.775 38.8468 134.228 38.9381 133.945 39.2232C130.684 42.4893 126.431 44.1936 122.504 46.3788C117.357 49.2302 111.851 51.2395 106.226 52.9145C104.953 53.2917 103.595 53.3529 102.419 54.0639C102.216 54.1856 101.961 54.1853 101.869 53.9154C101.794 53.6985 101.978 53.5897 102.154 53.4764C106.507 50.626 111.262 48.5459 115.957 46.368C118.794 45.0493 121.56 43.5996 124.271 42.0214C122.807 42.2324 121.352 42.4698 119.885 42.6016C111.871 43.3274 103.89 42.8772 95.9246 41.9194C91.3582 41.3683 86.8289 40.5871 82.348 39.5647C81.7436 39.4262 81.564 39.3878 81.6513 40.1547C82.194 44.7936 81.5881 49.2314 79.015 53.251C76.7384 56.7987 73.4276 59.0457 69.5717 60.5526C63.4832 62.934 57.1084 63.4014 50.6629 63.155C34.2008 62.5205 19.6421 56.9615 7.13262 46.1991C4.78962 44.1863 2.70403 41.9253 1.14528 39.2295C1.09211 39.1296 1.02785 39.0405 0.976756 38.9472C0.750811 38.5516 0.795258 38.1588 1.16465 37.9192C1.54067 37.6775 1.85492 37.936 2.07127 38.2544C2.74605 39.2452 3.50576 40.1584 4.33474 41.0135C11.4136 48.3041 19.9098 53.351 29.4487 56.6794C39.2826 60.1121 49.4002 61.474 59.8001 60.3647C64.002 59.9152 68.0786 58.973 71.766 56.8121C77.594 53.3902 79.7634 48.1054 79.3561 41.5733C79.2994 40.6948 79.3708 39.6669 78.9435 38.9775C78.5012 38.2635 77.3557 38.3748 76.5176 38.1419C67.6514 35.6811 59.125 32.4216 51.3175 27.4796C46.0625 24.1496 41.2369 20.3062 37.6426 15.137C36.1938 13.048 35.0422 10.8149 34.662 8.25261C34.16 4.88327 35.6006 2.20223 38.7162 0.774226C38.8182 0.727697 38.9135 0.683283 38.9092 0.553461L39.8648 0.254045L39.876 0.243245ZM78.2013 35.6324C77.5013 33.6075 76.7557 31.7864 75.8506 30.0371C72.8397 24.2187 68.7388 19.2229 64.0507 14.7024C59.9031 10.6975 55.3996 7.16119 50.149 4.68231C47.5739 3.46357 44.9189 2.52485 42.0072 2.65027C38.2108 2.81245 36.4732 5.26599 37.5155 8.9178C37.8669 10.1557 38.4023 11.3067 39.0664 12.4029C41.5138 16.4232 44.8719 19.5825 48.6042 22.355C55.5371 27.5054 63.3187 30.9691 71.4725 33.6677C73.6432 34.3865 75.8416 35.0311 78.2034 35.639L78.2013 35.6324Z" fill="#6CA3A4"/>
</svg>
