<svg width="79" height="79" viewBox="0 0 79 79" fill="none" xmlns="http://www.w3.org/2000/svg">
<ellipse cx="39.5717" cy="39.6346" rx="39.0717" ry="39.1238" fill="#F4C24D"/>
<path d="M40.0729 27.6152C39.9196 27.615 39.7682 27.6491 39.6298 27.7151C39.4915 27.7811 39.3697 27.8772 39.2734 27.9965L39.0909 28.1318C35.5547 27.0371 31.5203 27.8407 28.7118 30.5467C27.5354 31.6625 26.6602 33.0577 26.1678 34.6024C25.6753 36.1472 25.5815 37.7915 25.8951 39.3822L25.7926 39.4765L24.1956 41.014C23.8867 41.3071 23.6407 41.66 23.4726 42.0512C23.3045 42.4424 23.2178 42.8637 23.2178 43.2895C23.2178 43.7153 23.3045 44.1367 23.4726 44.5279C23.6407 44.9191 23.8867 45.272 24.1956 45.565C25.0115 46.3522 26.1431 46.6474 27.1948 46.4506C27.3239 47.0431 27.6253 47.6068 28.1029 48.066C28.7323 48.6728 29.5502 48.9865 30.3743 49.009C30.3969 49.8024 30.7228 50.5896 31.3522 51.1964C31.9815 51.8032 32.8015 52.1189 33.6256 52.1394C33.6461 52.9327 33.9741 53.722 34.6035 54.3288C35.206 54.9006 35.9953 55.2347 36.8252 55.2694C37.6551 55.3041 38.4695 55.0369 39.1176 54.5174L40.0134 55.3784C41.3254 56.6432 43.4533 56.6432 44.7653 55.3784C45.3926 54.7757 45.7186 53.9926 45.7473 53.2013C46.5673 53.1767 47.377 52.863 48.0023 52.2603C48.6275 51.6576 48.9555 50.8725 48.9801 50.0812C49.8131 50.051 50.606 49.7162 51.2085 49.1402C51.7066 48.6626 52.0141 48.0701 52.133 47.451C52.6607 47.5434 53.2027 47.5106 53.7154 47.3554C54.2281 47.2002 54.6972 46.9268 55.085 46.5572C55.3943 46.2642 55.6406 45.9112 55.8089 45.5198C55.9772 45.1284 56.064 44.7068 56.064 44.2807C56.064 43.8547 55.9772 43.4331 55.8089 43.0417C55.6406 42.6503 55.3943 42.2973 55.085 42.0042L53.609 40.5835L53.9104 39.456C54.5178 37.1508 54.2092 34.7 53.0494 32.6172C51.3356 29.5299 48.0105 27.6234 44.4148 27.6234H41.8933L41.5673 27.6152H40.0729ZM45.1015 35.233L50.0318 39.9829L50.0379 39.987L53.607 43.4269C53.7229 43.5368 53.8153 43.6692 53.8784 43.816C53.9415 43.9628 53.974 44.1209 53.974 44.2807C53.974 44.4405 53.9415 44.5986 53.8784 44.7454C53.8153 44.8922 53.7229 45.0246 53.607 45.1345C53.3673 45.3609 53.0501 45.487 52.7204 45.487C52.3907 45.487 52.0735 45.3609 51.8337 45.1345L49.1257 42.5269C48.9272 42.3365 48.6628 42.2302 48.3877 42.2302C48.1126 42.2302 47.8482 42.3365 47.6497 42.5269L47.621 42.5515C47.5249 42.6434 47.4484 42.7538 47.3961 42.8761C47.3438 42.9983 47.3169 43.1299 47.3169 43.2629C47.3169 43.3959 47.3438 43.5274 47.3961 43.6497C47.4484 43.772 47.5249 43.8824 47.621 43.9742L49.7325 46.0078C50.2245 46.4793 50.2245 47.246 49.7325 47.7196C49.5148 47.9259 49.232 48.05 48.9327 48.0706C48.6335 48.0911 48.3364 48.0069 48.0925 47.8323C47.8889 47.6853 47.6402 47.6142 47.3897 47.6314C47.1392 47.6486 46.9026 47.7531 46.721 47.9266C46.5436 48.0963 46.4365 48.3264 46.4209 48.5714C46.4054 48.8163 46.4825 49.0582 46.637 49.2489C46.821 49.4794 46.9118 49.7706 46.8913 50.0648C46.8708 50.3591 46.7405 50.6349 46.5263 50.8376C46.3055 51.047 46.0178 51.1718 45.714 51.1898C45.4102 51.2078 45.1098 51.1179 44.8658 50.936C44.6632 50.7841 44.4135 50.7086 44.1607 50.7228C43.9079 50.7371 43.6683 50.8402 43.4841 51.0139C43.3044 51.1833 43.1954 51.4144 43.179 51.6608C43.1627 51.9072 43.2402 52.1507 43.3959 52.3423C43.5852 52.5755 43.6792 52.8717 43.659 53.1714C43.6389 53.471 43.5061 53.752 43.2873 53.9577C43.0446 54.188 42.7229 54.3164 42.3884 54.3164C42.0538 54.3164 41.7321 54.188 41.4894 53.9577L40.6018 53.1029L40.9257 52.7913C41.2349 52.4982 41.4812 52.1452 41.6495 51.7538C41.8178 51.3624 41.9046 50.9408 41.9046 50.5148C41.9046 50.0887 41.8178 49.6671 41.6495 49.2757C41.4812 48.8843 41.2349 48.5313 40.9257 48.2382C40.3126 47.6517 39.5025 47.3154 38.6543 47.2952C38.629 46.4652 38.2776 45.6786 37.6764 45.1058C37.0625 44.5196 36.2516 44.184 35.403 44.1649C35.3777 43.3349 35.0263 42.5483 34.4251 41.9755C34.0313 41.6006 33.5539 41.325 33.0323 41.1713C32.5108 41.0177 31.9601 40.9905 31.426 41.0919C31.2905 40.4752 30.9743 39.9128 30.5178 39.4765C30.168 39.1419 29.7507 38.8858 29.294 38.7253C28.8372 38.5648 28.3515 38.5036 27.8692 38.5458C27.7081 37.3446 27.834 36.1222 28.2367 34.9791C28.6393 33.8359 29.3073 32.8045 30.1857 31.9694C31.0736 31.121 32.1382 30.4796 33.3032 30.0911C34.4682 29.7027 35.7047 29.5768 36.9241 29.7226L33.9413 31.9161C33.5597 32.1934 33.2382 32.5452 32.9963 32.9502C32.7544 33.3552 32.5971 33.805 32.5339 34.2725C32.4706 34.74 32.5028 35.2155 32.6285 35.6702C32.7541 36.1249 32.9706 36.5494 33.2648 36.9181C33.8603 37.6639 34.7201 38.1516 35.6658 38.2799C36.6114 38.4081 37.5701 38.1671 38.3427 37.6069L41.5735 35.2351L45.1015 35.233ZM35.1549 33.5664L40.4685 29.6652H41.5673C41.6679 29.6643 41.7684 29.667 41.8687 29.6734H44.4148C47.293 29.6734 49.919 31.2007 51.2577 33.6135C52.1638 35.2453 52.4016 37.1416 51.928 38.9312L51.9219 38.9517L46.2639 33.4844C46.0721 33.292 45.8119 33.1836 45.5402 33.183H41.2352C41.0177 33.1835 40.8059 33.2531 40.6305 33.3819L37.1291 35.9526C36.785 36.1984 36.3601 36.3036 35.941 36.2469C35.522 36.1901 35.1404 35.9756 34.8741 35.6471C34.7501 35.4944 34.6587 35.318 34.6055 35.1286C34.5523 34.9392 34.5385 34.741 34.5648 34.5461C34.5911 34.3511 34.657 34.1637 34.7585 33.9952C34.86 33.8267 34.9949 33.6808 35.1549 33.5664ZM36.061 51.2169L36.0815 51.1964L37.6764 49.6589L37.6949 49.6425C37.9359 49.424 38.2506 49.3045 38.5759 49.3079C38.9012 49.3113 39.2133 49.4374 39.4497 49.6609C39.5656 49.7709 39.658 49.9033 39.7211 50.0501C39.7841 50.1969 39.8167 50.355 39.8167 50.5148C39.8167 50.6745 39.7841 50.8326 39.7211 50.9794C39.658 51.1262 39.5656 51.2586 39.4497 51.3686L37.8527 52.9061C37.613 53.1324 37.2958 53.2585 36.9661 53.2585C36.6364 53.2585 36.3192 53.1324 36.0795 52.9061C35.9651 52.7978 35.8736 52.6676 35.8104 52.5233C35.7472 52.3789 35.7137 52.2234 35.7118 52.0658C35.7099 51.9083 35.7396 51.752 35.7993 51.6061C35.8589 51.4603 35.9493 51.3279 36.061 51.2169ZM36.2168 48.2198L36.1963 48.2382L34.6014 49.7757L34.5809 49.7942C34.3398 50.0118 34.0254 50.1306 33.7005 50.1268C33.3757 50.123 33.0642 49.9969 32.8282 49.7737C32.7135 49.6649 32.622 49.5341 32.559 49.3892C32.496 49.2443 32.4628 49.0881 32.4615 48.9301C32.4601 48.772 32.4907 48.6154 32.5512 48.4694C32.6117 48.3234 32.7011 48.1911 32.8138 48.0804L32.8282 48.066L34.4231 46.5285L34.4374 46.5142C34.6782 46.2939 34.9934 46.173 35.3197 46.1756C35.646 46.1783 35.9592 46.3044 36.1963 46.5285C36.3111 46.6369 36.4028 46.7672 36.4662 46.9117C36.5295 47.0562 36.5632 47.212 36.5651 47.3698C36.567 47.5276 36.5371 47.6842 36.4773 47.8302C36.4175 47.9762 36.3289 48.1087 36.2168 48.2198ZM32.9471 45.1058L31.3501 46.6433L31.3358 46.6577C31.095 46.8779 30.7798 46.9989 30.4535 46.9962C30.1272 46.9936 29.814 46.8675 29.5769 46.6433C29.4609 46.5334 29.3686 46.401 29.3055 46.2542C29.2424 46.1074 29.2099 45.9493 29.2099 45.7895C29.2099 45.6297 29.2424 45.4716 29.3055 45.3248C29.3686 45.178 29.4609 45.0456 29.5769 44.9357L31.1718 43.3982C31.4116 43.1713 31.7293 43.0448 32.0594 43.0448C32.3896 43.0448 32.7073 43.1713 32.9471 43.3982C33.062 43.507 33.1539 43.6379 33.2171 43.783C33.2802 43.9281 33.3135 44.0845 33.3148 44.2428C33.3162 44.4011 33.2856 44.558 33.2249 44.7042C33.1641 44.8504 33.0745 44.9828 32.9614 45.0935L32.9471 45.1058ZM29.0398 42.6069L27.4449 44.1444C27.2051 44.3713 26.8874 44.4978 26.5572 44.4978C26.2271 44.4978 25.9094 44.3713 25.6696 44.1444C25.5533 44.0344 25.4607 43.9019 25.3974 43.7549C25.3341 43.6079 25.3015 43.4496 25.3015 43.2895C25.3015 43.1295 25.3341 42.9712 25.3974 42.8242C25.4607 42.6772 25.5533 42.5447 25.6696 42.4347L27.2665 40.8972C27.5063 40.6709 27.8235 40.5448 28.1532 40.5448C28.4828 40.5448 28.8001 40.6709 29.0398 40.8972C29.156 41.0072 29.2486 41.1397 29.3119 41.2867C29.3752 41.4337 29.4079 41.592 29.4079 41.752C29.4079 41.9121 29.3752 42.0704 29.3119 42.2174C29.2486 42.3644 29.156 42.4969 29.0398 42.6069Z" fill="white"/>
</svg>
