<svg width="31" height="31" viewBox="0 0 31 31" fill="none" xmlns="http://www.w3.org/2000/svg">
<path d="M15.5293 0.72168C23.4658 0.721938 29.8994 7.15616 29.8994 15.0928C29.8992 23.0291 23.4656 29.4626 15.5293 29.4629C7.59268 29.4629 1.15846 23.0293 1.1582 15.0928C1.1582 7.156 7.59252 0.72168 15.5293 0.72168Z" stroke="white" stroke-width="1.24963" stroke-linecap="round" stroke-linejoin="round"/>
<mask id="path-2-inside-1_7_7719" fill="white">
<path d="M3.93848 24.6081C3.93848 24.6081 7.28103 20.3408 15.5286 20.3408C23.7762 20.3408 27.1188 24.6081 27.1188 24.6081"/>
</mask>
<path d="M2.95471 23.8375C2.52913 24.3809 2.62458 25.1663 3.1679 25.5919C3.71122 26.0175 4.49666 25.922 4.92224 25.3787L3.93848 24.6081L2.95471 23.8375ZM26.1351 25.3787C26.5607 25.922 27.3461 26.0175 27.8894 25.5919C28.4328 25.1663 28.5282 24.3808 28.1026 23.8375L27.1188 24.6081L26.1351 25.3787ZM3.93848 24.6081C4.92224 25.3787 4.9218 25.3793 4.92138 25.3798C4.92125 25.38 4.92084 25.3805 4.92059 25.3808C4.92008 25.3814 4.91963 25.382 4.91922 25.3825C4.91841 25.3836 4.9178 25.3843 4.91738 25.3849C4.91655 25.3859 4.9165 25.386 4.91724 25.385C4.91873 25.3832 4.92338 25.3775 4.93125 25.3683C4.94698 25.3497 4.97552 25.3168 5.01724 25.2715C5.1007 25.1809 5.23666 25.0411 5.42795 24.8681C5.81053 24.522 6.41371 24.0435 7.26078 23.5594C8.94692 22.5957 11.6318 21.5905 15.5286 21.5905V20.3408V19.0912C11.1778 19.0912 8.06764 20.2196 6.02061 21.3895C5.0011 21.9722 4.25317 22.5606 3.75129 23.0146C3.50035 23.2417 3.31074 23.4352 3.17918 23.578C3.11339 23.6494 3.06207 23.7082 3.02481 23.7521C3.00618 23.7741 2.99106 23.7924 2.97939 23.8067C2.97356 23.8139 2.96859 23.8201 2.96448 23.8252C2.96242 23.8278 2.96058 23.8301 2.95895 23.8322C2.95814 23.8332 2.95738 23.8341 2.95667 23.835C2.95632 23.8355 2.95583 23.8361 2.95565 23.8363C2.95517 23.837 2.95471 23.8375 3.93848 24.6081ZM15.5286 20.3408V21.5905C19.4254 21.5905 22.1103 22.5957 23.7965 23.5594C24.6436 24.0435 25.2468 24.522 25.6294 24.8681C25.8207 25.0411 25.9566 25.1809 26.0401 25.2715C26.0818 25.3168 26.1104 25.3497 26.1261 25.3683C26.134 25.3775 26.1386 25.3832 26.1401 25.3851C26.1408 25.386 26.1408 25.3859 26.14 25.3849C26.1395 25.3843 26.1389 25.3836 26.1381 25.3826C26.1377 25.382 26.1373 25.3815 26.1367 25.3808C26.1365 25.3805 26.1361 25.38 26.136 25.3798C26.1355 25.3793 26.1351 25.3787 27.1188 24.6081C28.1026 23.8375 28.1021 23.8369 28.1017 23.8363C28.1015 23.8361 28.101 23.8355 28.1006 23.835C28.0999 23.8341 28.0992 23.8332 28.0984 23.8321C28.0967 23.8301 28.0949 23.8278 28.0928 23.8252C28.0887 23.82 28.0837 23.8139 28.0779 23.8067C28.0663 23.7924 28.0511 23.7741 28.0325 23.7521C27.9952 23.7082 27.9439 23.6494 27.8781 23.578C27.7466 23.4352 27.5569 23.2416 27.306 23.0146C26.8041 22.5606 26.0562 21.9722 25.0366 21.3895C22.9896 20.2196 19.8794 19.0912 15.5286 19.0912V20.3408Z" fill="white" mask="url(#path-2-inside-1_7_7719)"/>
<path d="M15.5288 6.71973C17.6682 6.71991 19.4019 8.45438 19.4019 10.5938C19.4017 12.733 17.6681 14.4666 15.5288 14.4668C13.3894 14.4668 11.655 12.7331 11.6548 10.5938C11.6548 8.45427 13.3893 6.71973 15.5288 6.71973Z" stroke="white" stroke-width="1.24963" stroke-linecap="round" stroke-linejoin="round"/>
</svg>
