<svg width="79" height="79" viewBox="0 0 79 79" fill="none" xmlns="http://www.w3.org/2000/svg">
<ellipse cx="39.3728" cy="39.0564" rx="39.1805" ry="39.0154" fill="#F4C24D"/>
<path d="M43.6625 37.2869L36.5015 30.1242C36.8422 29.9048 37.2295 29.7345 37.6635 29.6132C38.0975 29.4918 38.5898 29.4312 39.1405 29.4312C40.5919 29.4312 41.818 29.9375 42.819 30.9502C43.8212 31.9628 44.3223 33.2065 44.3223 34.6812C44.3223 35.1642 44.2564 35.6507 44.1245 36.1407C43.9915 36.6307 43.8375 37.0127 43.6625 37.2869ZM28.9153 48.6549C30.4704 47.5396 32.0659 46.6821 33.7015 46.0824C35.3372 45.4816 37.1274 45.1812 39.0723 45.1812C40.4489 45.1812 41.7037 45.3492 42.8365 45.6852C43.9694 46.0212 44.8986 46.3671 45.6243 46.7229L38.8133 39.9119C37.4203 39.8034 36.2688 39.3 35.3588 38.4017C34.4488 37.5033 33.9512 36.3577 33.866 34.9647L28.644 29.7409C27.5754 30.9367 26.7132 32.3128 26.0575 33.8692C25.4007 35.4243 25.0723 37.1533 25.0723 39.0562C25.0723 41.001 25.4182 42.7656 26.11 44.3499C26.8019 45.9342 27.7369 47.3692 28.9153 48.6549ZM49.6265 48.2367C50.6042 47.0408 51.4232 45.6875 52.0835 44.1767C52.7427 42.6658 53.0723 40.959 53.0723 39.0562C53.0723 35.177 51.709 31.8736 48.9825 29.1459C46.256 26.4182 42.9526 25.055 39.0723 25.0562C37.2814 25.0562 35.6084 25.3636 34.0533 25.9784C32.4969 26.5932 31.1098 27.4344 29.8918 28.5019L49.6265 48.2367ZM39.0723 54.8062C36.8824 54.8062 34.8291 54.3972 32.9123 53.5794C30.9954 52.7616 29.3271 51.6416 27.9073 50.2194C26.4874 48.7972 25.368 47.1289 24.549 45.2144C23.73 43.2999 23.3211 41.2472 23.3223 39.0562C23.3223 36.8593 23.7312 34.8048 24.549 32.8927C25.3669 30.9793 26.4869 29.3122 27.909 27.8912C29.3312 26.4702 30.9995 25.3507 32.914 24.5329C34.8285 23.7151 36.8813 23.3062 39.0723 23.3062C41.2691 23.3062 43.3236 23.7151 45.2358 24.5329C47.1491 25.3507 48.8163 26.4707 50.2373 27.8929C51.6583 29.3151 52.7777 30.9817 53.5955 32.8927C54.4134 34.8037 54.8223 36.8582 54.8223 39.0562C54.8223 41.246 54.4134 43.2993 53.5955 45.2162C52.7777 47.133 51.6577 48.8013 50.2355 50.2212C48.8134 51.641 47.1468 52.7604 45.2358 53.5794C43.3248 54.3984 41.2703 54.8073 39.0723 54.8062ZM39.0723 53.0562C40.7079 53.0562 42.3004 52.7627 43.8498 52.1759C45.4014 51.5891 46.7682 50.8278 47.95 49.8922C46.8125 48.9798 45.4353 48.2582 43.8183 47.7274C42.2013 47.1966 40.6193 46.9312 39.0723 46.9312C37.5253 46.9312 35.9713 47.1797 34.4103 47.6767C32.8493 48.1737 31.444 48.9122 30.1945 49.8922C31.3775 50.8278 32.7437 51.5891 34.293 52.1759C35.8424 52.7627 37.4354 53.0562 39.0723 53.0562Z" fill="white"/>
</svg>
